<svg xmlns="http://www.w3.org/2000/svg" viewBox="0 0 100 100">
  <!-- Cat Face -->
  <circle cx="50" cy="55" r="32" fill="#F59E0B"/>

  <!-- Ears -->
  <polygon points="20,45 30,15 45,40" fill="#F59E0B"/>
  <polygon points="80,45 70,15 55,40" fill="#F59E0B"/>
  <polygon points="25,42 32,22 42,40" fill="#FED7AA"/>
  <polygon points="75,42 68,22 58,40" fill="#FED7AA"/>

  <!-- Eyes -->
  <ellipse cx="38" cy="50" rx="8" ry="10" fill="#78350F"/>
  <ellipse cx="62" cy="50" rx="8" ry="10" fill="#78350F"/>
  <ellipse cx="38" cy="50" rx="3" ry="8" fill="#22C55E"/>
  <ellipse cx="62" cy="50" rx="3" ry="8" fill="#22C55E"/>
  <ellipse cx="38" cy="50" rx="1.5" ry="6" fill="#78350F"/>
  <ellipse cx="62" cy="50" rx="1.5" ry="6" fill="#78350F"/>

  <!-- Nose -->
  <polygon points="50,60 45,65 55,65" fill="#92400E"/>

  <!-- Mouth -->
  <path d="M45 68 Q50 73 55 68" stroke="#92400E" stroke-width="2" fill="none"/>
  <line x1="50" y1="65" x2="50" y2="70" stroke="#92400E" stroke-width="2"/>

  <!-- Whiskers -->
  <line x1="25" y1="60" x2="40" y2="62" stroke="#92400E" stroke-width="1.5"/>
  <line x1="25" y1="65" x2="40" y2="65" stroke="#92400E" stroke-width="1.5"/>
  <line x1="25" y1="70" x2="40" y2="68" stroke="#92400E" stroke-width="1.5"/>
  <line x1="75" y1="60" x2="60" y2="62" stroke="#92400E" stroke-width="1.5"/>
  <line x1="75" y1="65" x2="60" y2="65" stroke="#92400E" stroke-width="1.5"/>
  <line x1="75" y1="70" x2="60" y2="68" stroke="#92400E" stroke-width="1.5"/>
</svg>
